# xmcd
#
# Track frame offsets:
#	150
#	10160
#	21895
#	34493
#	45013
#	55640
#	66843
#	80803
#	90043
#	102840
#	113213
#	122315
#	132363
#	145023
#	157275
#	168720
#	179860
#	191398
#	200198
#	212018
#
# Disc length: 3005 seconds
#
# Revision: 1
# Processed by: cddbd v1.4PL0 Copyright (c) Steve Scherf et al.
# Submitted via: audiograbber 1.81.03
#
DISCID=160bbb14
DTITLE=Various Artist - 20 Gospel Greats
DYEAR=1990
DGENRE=Gospel
TTITLE0=Johnny Taylor And The Soul Stirrers - The Love Of God
TTITLE1=Swan Silvertones - Trouble In My Way
TTITLE2=Dorothy Love Coates and The Original Harmonettes - Get Away Jordan (I Wan
TTITLE2=t To Cross Over)
TTITLE3=The Pilgrim Travellers - Straight Street
TTITLE4=James Cleveland and The Meditation Singers - I'm Determined To Run This R
TTITLE4=ace
TTITLE5=The Original Five Blind Boys Of Alabama - Living For My Jesus
TTITLE6=Sister Wynona Carr - The Ball Game
TTITLE7=The Soul Stirrers Feat. Sam Cooke - Touch The Hem Of His Garment
TTITLE8=Chosen Gospel Singers - Prayer For The Doomed
TTITLE9=Dorothy Love Coates and The Original Harmonettes - You Better Run
TTITLE10=The Original Five Blind Boys Of Alabama - Alone And Motherless
TTITLE11=Alex Bradford - Alex Bradford
TTITLE12=Bessie Griffin and The Consolators - Whosoever Will
TTITLE13=Dorothy Love Coates - 99 1/2
TTITLE14=The Original Five Blind Boys Of Alabama - This May Be The Last Time
TTITLE15=The Pilgrim Travellers - Jesus Hits Like The Atom Bomb
TTITLE16=Alex Bradford - The Lifeboat
TTITLE17=The Original Gospel Harmonettes - Wade In The Water
TTITLE18=Sam Cooke With The Soul Stirrers - Pilgrim Of Sorrow
TTITLE19=Swan Silvertones - My Rock
EXTD=
EXTT0=
EXTT1=
EXTT2=
EXTT3=
EXTT4=
EXTT5=
EXTT6=
EXTT7=
EXTT8=
EXTT9=
EXTT10=
EXTT11=
EXTT12=
EXTT13=
EXTT14=
EXTT15=
EXTT16=
EXTT17=
EXTT18=
EXTT19=
PLAYORDER=
